<svg width="24" height="25" viewBox="0 0 24 25" fill="none" xmlns="http://www.w3.org/2000/svg">
<path d="M12 2.67499C8.13 2.67499 5 5.80499 5 9.67499C5 14.925 12 22.675 12 22.675C12 22.675 19 14.925 19 9.67499C19 5.80499 15.87 2.67499 12 2.67499ZM7 9.67499C7 6.91499 9.24 4.67499 12 4.67499C14.76 4.67499 17 6.91499 17 9.67499C17 12.555 14.12 16.865 12 19.555C9.92 16.885 7 12.525 7 9.67499Z" fill="#21281F" fill-opacity="0.5"/>
<path d="M12 12.175C13.3807 12.175 14.5 11.0557 14.5 9.67499C14.5 8.29428 13.3807 7.17499 12 7.17499C10.6193 7.17499 9.5 8.29428 9.5 9.67499C9.5 11.0557 10.6193 12.175 12 12.175Z" fill="#187121" fill-opacity="0.5"/>
</svg>
